<svg xmlns="http://www.w3.org/2000/svg" viewBox="0 0 958.18 750.47"><defs><style>.cls-1{fill:#fff;}</style></defs><g id="Layer_2" data-name="Layer 2"><g id="Layer_1-2" data-name="Layer 1"><path class="cls-1" d="M485.94,463.66c-61.12-.87-122.45,1.78-183.47-1.11-3.4-.49-7.38-.18-7.94,3.94-1.84,29,.05,58.31-.65,87.36-.44,2.82-1.28,3.78-4.08,4.1-94,.28-188.1,0-282.15.1-3.5.05-7.34.1-7-4.73-.58-4-1.95-12.4,3.85-12.69,78.81-.12,157.63,0,236.45,0,5.57,0,5.55,0,3.15-4.92-7.72-15.86-16.65-31.08-25-46.63q-9.51-17.76-19-35.52c-2.94-5.5-5.86-11-8.69-16.56-1.93-3.77-1.39-4.93,2.61-6.41,178.07,0,358.88.15,537.8.71,7.64.19,15.45.15,22.8-2.2,4.51-1.38,8.18.83,11.85,2.84,1.95,1.26.59,3.93-.25,5.55-17.12,33.54-36.39,66-53.11,99.7-2.58,4.18,2.54,3.34,5.12,3.44,78.09-.21,156.2.4,234.28-.24,8.66-.88,6.37,19.3.16,17.7-94.4-.06-188.82.15-283.22,0-5.95.27-5.91-5.26-5.8-9.8q0-38.69.08-77.37c0-6.69-.38-7.07-7.19-7.07H485.94Z"/><path class="cls-1" d="M635.82,398.86c-7-3.39-14.32-6.28-22.39-5.78q-134.38.17-268.76,0c-15.66-1.33-22.52,10.66-27.47,3.19-11.91-14.86-23-30.41-34.17-45.84-1.5-2.38-4.33-5.11-2.28-8,128.16-2.79,262.58,2.74,392.46-1.8,3.49.17,6.32,3.38,3.63,7-4.48,6.09-8.69,12.37-13.17,18.44C658.17,371.76,641.75,399.78,635.82,398.86Z"/><path class="cls-1" d="M362.26,266.3c81.41,3.46,164.07.84,244.88,1,6.11,2.52-1,8.7-2.93,12-6.61,8.68-13.44,17.19-19.74,26.1-2.23,3.15-4.1,3.55-7.32,1.49-60.66-7.93-124.71-.36-186.46-2.92a16,16,0,0,0-10,3.28c-3,2.27-4.88,2.06-7-1-7-10.46-14.95-20.24-22.42-30.37C343.14,265.63,354.67,266,362.26,266.3Z"/><path class="cls-1" d="M957.36,737c0,3-1.48,4.73-4.23,4.33-17.13-.87-15.77-16.65-19.51-28.87-1.26-4.79-3.93-7.22-8.92-7.87-10.36-1.2-20-6.09-30.54-6.44-3.48-.06-4.13.27-5,3.73a102.19,102.19,0,0,1-4.12,13.4c-2.67,7.47-11.6,4.12-16.8,1.49-5.95-2.86-1.61-9.57-.33-14.12,14-39.68,26.42-79.89,38.84-120.09,1.41-5.86,6.94-5.33,8,.51C930.92,633.81,944.83,685.32,957.36,737Zm-33.53-60.79c-3.27-13.26-8.13-26.16-11.34-39.45-.36-2.67-3.58-2.8-3.6.09a100.19,100.19,0,0,1-3.11,11.41c-2.39,7.39-4.74,14.81-6.93,22.26-1.05,3.57-.07,4.75,3.62,5.33q6.56,1,13.08,2.2C918.38,678.72,923.67,680.9,923.83,676.24Z"/><path class="cls-1" d="M.08,660.51c.24-25.41-.49-50.88.29-76.26.34-4.86,5.1-4.87,9-4.78,15.36,0,30.69-.14,46-.65,12.42-1.46,7,12.72,8.09,20.4-.06,3.75-1.39,5.22-5.12,5.58-7.15.68-14.31,1.37-21.5,1.58-4.67.13-9.33.55-14,.64-3.65-.2-4.13,2.27-4,5.34.53,9.94,0,19.88,0,29.82,0,6,1.26,7,7.15,5.62,29.09-2.78,31.83-12.39,29.46,17.9-.16,3.14-2.07,4.85-5.43,5.25C6,677,21.34,671.39,18.79,729.22c1.38,8.41-6.82,10.3-13.31,11.58-5.9,1.94-5.32-5.55-5.4-9.41Z"/><path class="cls-1" d="M141.3,704.29c-3.77,0-4.86-.67-6.25-4.24-2.83-4.22-4.2-17.39-10.53-15-10.34,2.08-20.63,4.39-31,6.22-15.15,4.69-4,31.12-26.73,31.62-4,.15-5.36-1.38-4.27-5.25,13.28-45.55,28-90.72,43.31-135.61,3.2-8.41,8.64-2.78,9.83,3.37q5.63,16.68,11.18,33.41C135.29,644.43,145,669.6,154.05,695,157.67,702.71,146.42,703.4,141.3,704.29ZM100,667.73c31.71-4.66,20.89.31,11.29-36.5-3.71-9.94-11.8,28-13.78,30.68C96.52,664.49,95.7,668.07,100,667.73Z"/><path class="cls-1" d="M167,668.07c.1-11.05-.68-22.14,1.36-32.89q0-23.73,0-47.48c-1.24-9.75,7.61-9.72,15-8.83,5.06.29,5.44,3.71,5.23,8,0,10.19.25,20.38-.62,30.55-.38,2.41.11,8,3.5,4.65,9.65-13.9,20.49-26.89,30.72-40.34,4-4.86,11.22-2.52,16.7-2.94,12.71.78-6.41,18.1-9.06,22.42-7.64,8.64-14.1,18.17-21.23,27.2-2.45,3.15-2.58,4.84,0,8,6,7.51,12,14.94,18.06,22.39,10,13.92,32.31,30-.81,29.43-7.13-1.69-10.22-10.34-15-15.32-6.08-9.08-14.11-16.67-19.69-26.1-6.55-9.48-2.79,35.42-3.85,38.64a13.78,13.78,0,0,1-13.71,13.42c-5.82-.14-6.53-1.9-6.52-6.39Q167,680.29,167,668.07Z"/><path class="cls-1" d="M826.81,577.27c8.66-.9,32.22,8.91,28.48,19.63-2.3,5-5.12,17.27-12.49,11.06-4.83-3.38-9.61-7.53-15.47-8.87-11.12-2.36-17.33,11.46-11.11,19.8,6.44,9.25,17.3,14,25.81,21,20.5,14.24,28.93,59.27.13,68.54-17,5.57-33.91-6-44.17-18.84-4.27-4.65.59-9.83,2.87-14.25,3.77-8.46,15.63,7.66,21,9.77,21.49,11.53,22-18.78,7.56-27.59-11.18-9-25.06-16-30.87-29.88C787.57,605.56,799.82,575.91,826.81,577.27Z"/><path class="cls-1" d="M600.19,647.23c-.06-21.19-1-42.39-.93-63.55.86-7.16,9.11-4.59,14.15-4.91,6-.18,4.9,6.54,5,10.72.08,7.66-.08,15.35.11,23,.32,3.64,1.55,4.86,5.2,5,11.84.49,23.68,1.33,35.54,1.52,3.85.11,5.15-1.21,4.77-4.92-.65-6.23-.2-12.46-.34-18.68.88-4.53-3.25-15.89,3.64-15.9,6.39.17,16.49-2.64,15.07,7.34,0,27.68,1.19,55.34,1.57,83,2.15,13-3.51,11.5-13.78,9.76-3.93-.45-5.35-3.75-5.18-7.36q-.33-14.91-.65-29.82c.94-5.31-3.71-5.89-7.84-5.91-11.15-.12-22.17-2.28-33.32-2.27-4.48-.42-4.2,3.68-4,7.06.86,9.44.5,18.93.34,28.38-1.16,6.62-10.6,3.94-15.35,3.36-7.46-2.55-2.8-19.26-4-25.89Z"/><path class="cls-1" d="M419,624c2.68-51.57-13.55-45.38,37.17-45.27,20.31-1.42,39.11,21.82,21.47,38-1.6,2.07-9.81,5.34-4.43,7.59,12.86,4.66,19,21.81,9.33,32.4-8.92,11.36-23.75,12.45-37.14,12.11-37.24.36-24.21,4.74-26.48-44.79Zm28.6,28.81c17.61,3.54,29-16.76,8.46-21.82-4,.39-18.4-2.82-18.19,3C439.09,646,430.75,654.63,447.58,652.84Zm-9.14-47.48h0c-1.18,13,2.64,10.33,13.57,10.69,11.19.28,17.74-16.75,5.87-20.3a58.55,58.55,0,0,0-16.08-1C436.52,595,438.92,601.87,438.44,605.36Z"/><path class="cls-1" d="M784.56,698.31c-20.12-.42-14.5-23.55-24.2-25.81-9.93-.79-19.71-2.62-29.53-4.13-6.73-.74-10.15-.53-12,6.73-1.52,5.25-5.34,11.2-11.59,10-3.74-1.09-12.84-1-10.34-7,11.9-27.5,24.11-54.87,35-82.8,10.18-33.42,14.21-13.27,22.3,6.35q10.86,27.6,21.66,55.24c4.14,10.61,8.17,21.25,12.23,31.89C789.58,693.07,791.3,699.08,784.56,698.31Zm-33.24-45.39c2.67.1,4.82-.28,3.6-3.42-3.58-8.85-6.77-17.93-10.66-26.65-4.48-9-11.48,20.87-13.72,23.86-1.07,2.87,0,4.49,3.06,4.59A168.79,168.79,0,0,1,751.32,652.92Z"/><path class="cls-1" d="M395.38,670.85c-13.47,2.24-8.53-14.92-19.38-15.62-10.93-.4-21.74,1.35-32.61,2.06-11.48.58-6.8,22.06-27.47,19.42-7.55-1.53-1.31-11.28.36-15.6,13.2-26.11,24.35-53.2,38-79.07,3.45-7,9.15-6.91,12,.55,5.68,11,10.4,22.39,15.78,33.51,7.63,15.62,15.66,31,23,46.81C409.26,671.28,400.73,670.19,395.38,670.85ZM352.56,639.6c3.32-.91,20.28,1.32,17.4-4.42-2.41-2.86-8.48-25.64-12.73-17C356.16,622.21,343.28,640.58,352.56,639.6Z"/><path class="cls-1" d="M582.24,671.62c-4.35-.91-9.8,1-12.45-2.91-4.57-5.3-4.06-15.55-12.68-15.69-8.25-.76-16.52-.65-24.79-.66-5.55.56-13.58-2.23-15.7,4.81-2,4.18-3.2,10.27-8.67,10.93-8.69,1-19,1.27-11-10.07,13.72-25.83,26.2-52.34,39.68-78.26,7.82-7.87,10.88,9.28,14.27,14,9.12,18.89,19,37.42,28.43,56.14C580.77,655.55,595.14,672,582.24,671.62Zm-41.71-33.9v0c3.23-.67,13.54,2.36,11-3.71-2.83-6.2-5.76-12.36-8.87-18.43-4.53-8.69-10.78,14.5-13.34,17.49C526.07,639.93,536.86,637.23,540.53,637.72Z"/><path class="cls-1" d="M479.86,0c2.33,16.21,1.2,32,2,48.23C483.52,58.89,479,84,485.62,90.8c11.91,10.57-3.53,13.84,1.94,21.62,7.33,9.06-5.06,13.58.3,20.82,8.36,10.21-8.44,12-1.69,19.35,10.14,10.55-7.64,12.87-.38,19,3.78,3.13,4.08,8.82.87,12.91-7,7.52,7.71,9.65-.31,20.8-1.34,5.54,8.55.72,7.38,10.75,0,5.63.19,11.29-.08,16.9-.2,4.79-4.84,4.22-8.39,4.17-26.17.3-19.94,2.35-20.79-24.33.25-6.41,10.68-1.82,6.28-8.92-7.55-11.44,7.87-11.23,1.79-18-4.4-5.27-5.22-7.38-1.05-13,5.8-6.08-6.4-11.27-1.43-17.58,9.17-9.48-7.58-14.25,2.13-23.62,6-4.89-8.25-8.3-1.47-18.05,3.3-3.59,3.31-5.72-.23-9.06-7.43-9.92,6.35-11.92,5.27-21.07-.11-12.11-.24-24.24.16-36.34C477.71,34.59,473.29,9,479.86,0Z"/><path class="cls-1" d="M390.7,521.22V492.46c-.7-4.69,1.56-8.69,6.75-7.93h26.24c3.65-.17,6.62,1,6.73,5.09.1,20.37,0,40.75,0,61.11,0,6.84-1.11,7.94-7.91,7.94H399.14c-4.86.22-8.73-.91-8.39-6.53-.05-10.3,0-20.61,0-30.91Z"/><path class="cls-1" d="M498.23,521.91c-2.22,41,11.56,37.06-32.48,36.74-5.85.58-7.7-2.95-7.17-8.3,0-15,0-29.94,0-44.91,0-5.62,1.09-11.23.26-16.84-.66-3.6,2.56-4.38,5.47-4.17,45.45-.17,31.77-4.9,33.87,37.48Z"/><path class="cls-1" d="M363.55,521.8q0,14.38,0,28.77c.23,3.58-.64,7.77-5,7.49-45.81-.6-32.76,8.2-34.46-43.76,0-38.27-3.82-28.6,32.57-29.76,5.1,0,6.86,1.83,6.88,7,.06,10.07,0,20.14,0,30.21Z"/><path class="cls-1" d="M528.93,521.32q0-14.93,0-29.83c-.38-3.28,1.17-6.62,4.92-6.33,8.74-.21,17.47-.51,26.21-.6,5.7-.06,7.88,2.13,7.89,7.81q.09,29.48,0,59c0,5.23-1.46,6.72-6.57,6.74q-13.29.06-26.6,0c-4.47,0-5.82-1.34-5.84-5.8-.06-10.3,0-20.61,0-30.91Z"/><path class="cls-1" d="M634.12,521.26q0,14,0,28c0,7.61-1.24,8.83-8.67,8.79-7.67,0-15.34,0-23-.05-4,.47-7.93-1.26-7.27-5.87q.06-28,.12-56.08c.23-4.21-.26-11.09,5.56-11.06C644.61,484.86,632.23,478.86,634.12,521.26Z"/><path class="cls-1" d="M284.5,578.71c5.77,1.13,32.17-3,32.26,3.15.56,4.47,2.1,12.32-3.81,13.7-5.18,2.33-20.27-3-19.9,4.81-.18,22-1.51,44.07-1.6,66.13.29,12.7-1.76,13.26-13.76,14.78-5.15,1.31-5.66-3.69-5.57-7.61q0-14.92,0-29.85c2.23-13.35,1.05-27.18,1.32-40.82.11-2.75-.28-5.51-3.62-5.33-6.32-1.4-18,3.68-20.24-4.63-.46-4.48-1.58-11.89,3.65-13.75,10.29-1.36,20.86-.17,31.24-.55Z"/><path class="cls-1" d="M407.3,719.94c-2.74,4.16-.46,10.71-1.19,15.64a4.75,4.75,0,0,0,2.58,4.75c6,5.35-7.46,4.13-10.24,4.07-2.5-.16-3.43-2.29-1.66-4,2.47-2.37,2.72-5.19,2.7-8.23-.93-7.43,2.18-16.4-2.39-22.8-2.47-1.88-.61-5.27,2.21-5.18,13.15-.15,14.48,17,21,25.36,2.56-4.64,1.11-10.94,1.29-16.2a5,5,0,0,0-2.38-4.17c-4.87-5.31,7.7-4.94,10.61-4,5.39,2-2.74,4.94-1.52,10.17,0,8,0,16.07-.07,24.11.7,4.82-5.32,6.59-8.66,3.79C414,736.42,412.61,726.92,407.3,719.94Z"/><path class="cls-1" d="M615.45,732c1.49-5.61.08-11.77.59-17.61,0-2.27-.23-4.13-2.65-5.34-2-1-1.76-2.9.37-3.61,3-1.36,14.19-1.67,10.32,3.79-4.33,6.47-1,22-2,30.38,0,2-.17,3.89-2.51,4.62-9.56,3.64-12.55-21.12-18.76-23.78a1.26,1.26,0,0,0-.74,1.14c0,4.55.17,9.1.18,13.66,0,2.24.31,4.29,2.41,5.66,4.3,5.24-8.29,3.21-10.85,3.41-2.34-.2-2.93-2.09-1.21-3.77a8.33,8.33,0,0,0,2.4-6.19c-.85-7.48,2.11-18.84-1.85-25-1.73-2-1.45-3.18,1-3.92,6-1.85,10.49-.58,12.39,5.47C607.35,718.23,610.68,726.05,615.45,732Z"/><path class="cls-1" d="M283.6,704.67c9.27-1.5,22.53,3.26,16.23,14.59-1.77,2.81-2.13,3.7.72,6.38,6.8,6.38,1.41,17.33-5.79,18.69a74.08,74.08,0,0,1-21.44.2c-1.92-.84-2.36-2.26-.8-3.54,6.18-6.57,1.9-17,3.17-25.25,0-2.78-.45-5.13-2.88-6.94-4.54-5.4,8.07-3.94,10.79-4.11Zm-1.3,28h-.05c-3.12,12.86,19.31,6.4,12.94-3.23-2-3.05-5-3.84-8.42-3.83C282,725.19,282.2,729.12,282.3,732.7Zm0-18.06c-1.94,8.77,11.95,7.22,11.82-.06-.18-3.26-3.33-4.56-6.16-4.93C283.54,708.82,282.32,709.84,282.3,714.64Z"/><path class="cls-1" d="M676.13,704.74c7.89-1.09,12.37,2.21,10,10.45-2.59,5.17-7.87,2.41-7.44-2.54-.46-2.36-1.51-3.37-3.92-3.34-18.84-.19-17.49,33.89,2,30.52,3.79-.71,4.92-7,1.88-9.28-1.62-1-4.25-1.83-3.62-4.25,1.29-3.42,6.57-2.26,9.36-1.47,4.56,2.92,1.74,10.23,2.33,14.86-.64,8.17-15.16,5.58-20.73,4.35-21.46-8.19-12-44.47,10.19-39.46Z"/><path class="cls-1" d="M473.37,744.43c-13.87-.11-10.14,1.19-8.32-10.28-1-8.27,2.36-18-2-25.36-1.42-1.5-1-2.71,1.06-3.52,10.63-2.58,28.47-.32,30.78,12.62,3.21,15.55-4.08,29.25-21.51,26.56Zm-1.8-20.22h0c.84,4.52-2.38,13.63,2.72,15.62,10.49,1.75,15.79-9.89,14.27-18.82A12.59,12.59,0,0,0,477,709.3C468.59,708.37,472.36,719.15,471.57,724.21Z"/><path class="cls-1" d="M359.45,744.44c-16.19.89,4.27-8.58-8.34-12-4.31-.11-10.19-1.11-9.76,5.17.27,3.23,3.83,6.55-1.59,6.9-2.52.67-11.68,0-8-3.95,3-2.6,4.09-6,5.05-9.68.62-6.35,7.28-16.94,4.13-22.29-1.33-1.62-.93-2.52,1-3.14,15.28-5.66,15,15.13,18.4,24.73,1.07,3.91,2,7.9,5.56,10.59C369.13,744.47,361.84,744.88,359.45,744.44Zm-11.64-30.2c-1.1,3.5-6.22,12.48.08,13.23,2.51.13,4.08-1.15,3.92-3.49C351.22,720.7,351.48,715.66,347.81,714.24Z"/><path class="cls-1" d="M551.2,722.72c-.36-4.65,1.31-10-2.4-13.7-3.42-4.48,5.63-4,8.15-3.36,1.9.44,2.52,1.37,1.73,3.12-1.78,4-1.59,8.18-1.53,12.37,1,10.09.16,23.3-13,23.35-20.9,2.53-14.57-17.77-16.52-31,.39-2.87-5-7.32-.64-8.53,2.81-.63,12.1-1.31,9.7,3.68-2.53,3.89-2.78,8-2.06,12.44.58,4.05-1.12,8.11.07,12.14,1.12,8.37,12.61,8.25,15.55,1.53C551.87,731,551,726.74,551.2,722.72Z"/><path class="cls-1" d="M450.9,677.47c-6.72-1.74-29.19,3.2-31.07-2.09-.1-3,3.91-2.81,6-2.94,18.43-.63,38.84,2.73,54.63-8.89,7-.72-1.57,7.55-4,8.57C468.82,676.22,459,676.68,450.9,677.47Z"/><path class="cls-1" d="M835.09,719.34a56,56,0,0,1-30.36-12.2c-2-1.9-6.68-5.52-4.13-8.35,1.2-.89,1.88.17,2.7.88,6.78,5.86,14.26,10.6,23,12.74,6.68,1.62,13.49,2.14,20-1.11,1.31-.62,3.34-1.18,4.13.48C849.75,717.86,839.94,718.38,835.09,719.34Z"/><path class="cls-1" d="M37.11,614.93c-3.65-.77-11.89,2-13.22-2.14-.13-1.61,1-2.7,3.35-2.95,11-1.07,22.22-1.33,33.29-1.46,2.8.17,3.3,4.32.5,5C53.27,614.83,45.05,614.79,37.11,614.93Z"/><path class="cls-1" d="M758.94,681.83c-9.89-1.62-19.88-4-30-4.4-2.41.12-5.64-1.64-4.39-4.44a2.46,2.46,0,0,1,3.12-1.68c10,2,20.32,2.56,30.36,4.62C762.05,675.74,763.79,681.93,758.94,681.83Z"/><path class="cls-1" d="M349.15,660c6.37,1.27,29.73-5.64,29.38,1.22-.23,2.22-2.75,2.54-4.55,2.51-7.83-.34-15.49,1.27-23.24,1.89-3.09-.12-10,1.87-10.24-2.6C340.09,658.92,346.92,660.17,349.15,660Z"/><path class="cls-1" d="M93.52,700.43c-1.75,0-3-.61-3.31-2.29-.67-4.77,12.53-4.23,16-5.8,4.49.07,19.42-6.49,20.84-1.22C129,695.84,98.35,698.42,93.52,700.43Z"/><path class="cls-1" d="M897.06,701.89c9.14,1.93,18.32,4.26,27.44,6.36,3.56.13,6.67,4.39,2.09,5.86-4.21.22-8-2.64-12.31-2.09-5.78-2.11-12-3.15-17.93-4.92C892.16,706.68,892.81,701.63,897.06,701.89Z"/><path class="cls-1" d="M26.1,683.62a2.56,2.56,0,0,1-2.93-2c-.62-3.55,4.33-3.06,6.59-3.82,5.43-.06,22.79-6.89,25.53-2.54C57.47,681.31,30.86,681.79,26.1,683.62Z"/><path class="cls-1" d="M630.82,638.54c3.69,1.09,30.55.09,29.17,4.34-1.12,4.88-13.93,1-18,1.16-5.22-.72-10.53.23-15.71-.6-2.76-.49-2.53-5,.39-4.88C627.82,638.46,629,638.54,630.82,638.54Z"/><path class="cls-1" d="M530.64,656.63c4.92,1.85,29-2.09,28.25,3.1-.08,2.23-2.49,2.87-4.35,2.57-10.19-1.82-20.51-.94-30.75-1.55a2,2,0,0,1-1.84-1.89C522.27,654.92,528,657.16,530.64,656.63Z"/><path class="cls-1" d="M825.48,602.57c9-.13,13.85,9,21.95,11.26,2.33.59,2.84,1.55,2.19,3.2-3.48,7.77-17.8-13.42-27-8.94C816.09,609.55,819.48,601.55,825.48,602.57Z"/><path class="cls-1" d="M613.79,683.14c-3.66-1.39-10.57.93-13.31-3a2.87,2.87,0,0,1,1.8-3.76c4.59-1.24,9.16,1.41,13.84,1.14a3.64,3.64,0,0,1,2.31.87C621.62,681.52,617.13,683.73,613.79,683.14Z"/><path class="cls-1" d="M225.78,697.33c-2.95.49-6-4.48-1.81-5.14a72.78,72.78,0,0,0,15.17-2.26c5.94-1.48,5.79,3.24,1.35,5.14C235.73,696.15,230.84,696.48,225.78,697.33Z"/><path class="cls-1" d="M259.56,606.18c-2.95-.48-8.73,1.64-9.46-2.48-.07-1.75,1.24-2.44,2.78-2.73a53.71,53.71,0,0,1,13.58-.45,2.66,2.66,0,0,1,2.77,3.07c-.67,4.4-6.58,2.14-9.67,2.65Z"/><path class="cls-1" d="M504.52,671.67c2.22.26,7.35-1.9,8.24,1.57.36,1.53-.48,2.52-1.78,3.13-4.43,1.72-9.49,1.15-14.13.7-2.24-.33-3.23-1.4-3-2.85C495.26,669.82,500.72,672.25,504.52,671.67Z"/><path class="cls-1" d="M396.89,673.68c2.76.53,8.1-1.59,8.92,2.14-.63,4.4-7.49,3.53-10.87,3.73-2.54-.65-7.57.27-7.83-3.32a2.43,2.43,0,0,1,2.61-2.41c2.39-.11,4.78,0,7.17,0Z"/><path class="cls-1" d="M317.93,685.42c-3.32.64-8.38-1.48-4.49-4.41a57.43,57.43,0,0,1,14.46-2.17c2.22-.05,3,2.78,1.48,4.19C326.5,685.66,321.07,684.69,317.93,685.42Z"/><path class="cls-1" d="M709.93,693.89c-3.62-1.33-13.63.71-13-5.41a2.35,2.35,0,0,1,2.52-1.61,125.92,125.92,0,0,0,15.13,2.5C718.7,692.57,712.87,693.89,709.93,693.89Z"/><path class="cls-1" d="M3.5,750.43a2.52,2.52,0,1,1-.74-5c3.91-.32,12.85-6.42,15.05-1.92C18.75,747.63,6.75,750.21,3.5,750.43Z"/><path class="cls-1" d="M171.56,707.26c-1.91,0-3.29-.37-3.64-2.1,0-5,10.77-4.08,14.42-5.1,1.34-.14,2.79.24,3.15,1.79C185.48,707.06,175,706.17,171.56,707.26Z"/><path class="cls-1" d="M879.07,728.65c-4.14-.74-9.59-1.09-12.92-4.1-2.8-6.78,12.76-.79,15.76-.59C886.21,726,882.61,729.3,879.07,728.65Z"/><path class="cls-1" d="M786.21,707.24c-2.87-.54-18.5-2.08-13-7,5-1.58,10,1.81,14.92,2.58C791.62,703.62,789.18,708.19,786.21,707.24Z"/><path class="cls-1" d="M306.29,604.82c-2.76-.49-8.13,1.6-8.79-2.29-.09-1.43,1-2.45,2.94-2.33,4.24,1.37,14.95-3.28,16.29,1.78-.79,4.29-7.29,2.23-10.44,2.72Z"/><path class="cls-1" d="M66.2,732.16c-3,.67-5.72-3.27-2.54-4.65,3.36-.51,14.7-5.61,16.1-1.7C79.71,730.78,69.49,730.78,66.2,732.16Z"/><path class="cls-1" d="M953.34,750.27c-3.29-1.09-13.54-2-12.84-7,2.27-4.15,10.72,2.05,14.45,2.52C958.22,746.93,956.8,751.07,953.34,750.27Z"/><path class="cls-1" d="M141.06,713.51c-3.49.75-6.21-3.6-2.54-5,3.85.77,15.07-4.6,15.8-.68C154.45,713.17,144.22,711.65,141.06,713.51Z"/><path class="cls-1" d="M673.44,683.78c2.68.49,10-.54,10.29,3.74-.11,1.89-1.6,2.28-3.12,2.18-3.64-.83-13.05.45-13.92-4C667.4,682.63,670.76,684.1,673.44,683.78Z"/><path class="cls-1" d="M284.92,683.83c3.22-.63,8,1.1,3.78,4.18a42.71,42.71,0,0,1-11.63,1.76c-2.35-.06-3.39-.81-3.42-2.28.55-4.46,7.93-2.88,11.25-3.79Z"/><path class="cls-1" d="M583.26,680.3c-4-1-12.38,1.06-13.51-3.3a2.47,2.47,0,0,1,2.29-2.37c4.05-.5,8,1.21,12.09,1,2,0,3.08.9,3.11,2.24C587.51,679.49,585,680.53,583.26,680.3Z"/><path class="cls-1" d="M811.86,649.65c2.64-.54,22.95,14.44,13,12.89C822.86,660.79,806.3,651.89,811.86,649.65Z"/><path class="cls-1" d="M446.53,634.36c4.78,1,10.9-1.34,14.73,3.09a2.2,2.2,0,0,1,.4,2.94,2,2,0,0,1-2.86.6c-3.51-2.26-7.4-1.47-11.19-1.57C442.48,641.07,440.74,634.44,446.53,634.36Z"/><path class="cls-1" d="M449.25,598.32c4,.73,7.21-.48,9.85,2.31,1.2,1.16.31,3.57-1.45,3.22-4.58-1.17-9.86.84-14.08-1.25C440.27,598.74,447.39,598.44,449.25,598.32Z"/></g></g></svg>